<svg xmlns="http://www.w3.org/2000/svg" xmlns:xlink="http://www.w3.org/1999/xlink" width="96" zoomAndPan="magnify" viewBox="0 0 72 72" height="96" preserveAspectRatio="xMidYMid meet" version="1.0"><defs><g/><clipPath id="a41bb66da6"><path d="M 28 31 L 40 31 L 40 34 L 28 34 Z M 28 31 " clip-rule="nonzero"/></clipPath><clipPath id="7418f120cc"><path d="M 43.835938 36.15625 L 28.089844 35.824219 L 28.246094 28.328125 L 43.992188 28.660156 Z M 43.835938 36.15625 " clip-rule="nonzero"/></clipPath><clipPath id="e304e8f732"><path d="M 43.835938 36.15625 L 28.089844 35.824219 L 28.246094 28.328125 L 43.992188 28.660156 Z M 43.835938 36.15625 " clip-rule="nonzero"/></clipPath><clipPath id="67370ef2a2"><path d="M 43.835938 36.15625 L 28.089844 35.824219 L 28.246094 28.328125 L 43.992188 28.660156 Z M 43.835938 36.15625 " clip-rule="nonzero"/></clipPath><clipPath id="e42636f119"><path d="M 28 32 L 40 32 L 40 36 L 28 36 Z M 28 32 " clip-rule="nonzero"/></clipPath><clipPath id="c71f5231bc"><path d="M 43.835938 36.15625 L 28.089844 35.824219 L 28.246094 28.328125 L 43.992188 28.660156 Z M 43.835938 36.15625 " clip-rule="nonzero"/></clipPath><clipPath id="890475ede3"><path d="M 43.835938 36.15625 L 28.089844 35.824219 L 28.246094 28.328125 L 43.992188 28.660156 Z M 43.835938 36.15625 " clip-rule="nonzero"/></clipPath><clipPath id="c20e9f9682"><path d="M 43.835938 36.15625 L 28.089844 35.824219 L 28.246094 28.328125 L 43.992188 28.660156 Z M 43.835938 36.15625 " clip-rule="nonzero"/></clipPath><clipPath id="5d39c3878a"><path d="M 37 28 L 44 28 L 44 37 L 37 37 Z M 37 28 " clip-rule="nonzero"/></clipPath><clipPath id="be81305b21"><path d="M 43.835938 36.15625 L 28.089844 35.824219 L 28.246094 28.328125 L 43.992188 28.660156 Z M 43.835938 36.15625 " clip-rule="nonzero"/></clipPath><clipPath id="a4132a9234"><path d="M 43.835938 36.15625 L 28.089844 35.824219 L 28.246094 28.328125 L 43.992188 28.660156 Z M 43.835938 36.15625 " clip-rule="nonzero"/></clipPath><clipPath id="ba519d33d3"><path d="M 43.835938 36.15625 L 28.089844 35.824219 L 28.246094 28.328125 L 43.992188 28.660156 Z M 43.835938 36.15625 " clip-rule="nonzero"/></clipPath></defs><g clip-path="url(#a41bb66da6)"><g clip-path="url(#7418f120cc)"><g clip-path="url(#e304e8f732)"><g clip-path="url(#67370ef2a2)"><path fill="#448ace" d="M 35.078125 32.335938 C 30.59375 31.242188 29.1875 31.816406 28.175781 32.660156 C 29.214844 32.230469 30.84375 32.160156 34.105469 32.9375 C 37.84375 33.832031 39.136719 32.886719 39.6875 32.359375 C 38.808594 32.703125 37.367188 32.894531 35.078125 32.335938 " fill-opacity="1" fill-rule="nonzero"/></g></g></g></g><g clip-path="url(#e42636f119)"><g clip-path="url(#c71f5231bc)"><g clip-path="url(#890475ede3)"><g clip-path="url(#c20e9f9682)"><path fill="#51ade5" d="M 34.324219 34.167969 C 34.882812 34.304688 35.394531 34.398438 35.859375 34.453125 L 34.914062 35.96875 C 35.855469 35.988281 36.734375 35.519531 37.222656 34.738281 L 37.363281 34.507812 C 38.796875 34.425781 39.550781 33.929688 39.902344 33.585938 C 39.027344 33.933594 37.585938 34.125 35.296875 33.566406 C 30.8125 32.472656 29.402344 33.046875 28.394531 33.890625 C 29.429688 33.460938 31.066406 33.375 34.324219 34.167969 " fill-opacity="1" fill-rule="nonzero"/></g></g></g></g><g clip-path="url(#5d39c3878a)"><g clip-path="url(#be81305b21)"><g clip-path="url(#a4132a9234)"><g clip-path="url(#ba519d33d3)"><path fill="#3a6ab9" d="M 38.617188 32.492188 L 39.46875 31.128906 L 41.558594 34.828125 C 42.015625 35.632812 42.875 36.136719 43.816406 36.160156 L 39.523438 28.566406 L 37.054688 32.53125 C 37.21875 32.542969 37.378906 32.550781 37.535156 32.554688 C 37.921875 32.5625 38.285156 32.542969 38.617188 32.492188 " fill-opacity="1" fill-rule="nonzero"/></g></g></g></g><g fill="#3a6ab9" fill-opacity="1"><g transform="translate(21.5865, 43.008001)"><g><path d="M -0.21875 0.078125 C -0.257812 0.015625 -0.28125 -0.0546875 -0.28125 -0.140625 L -0.28125 -0.15625 C -0.28125 -0.15625 -0.28125 -0.160156 -0.28125 -0.171875 C -0.269531 -0.304688 -0.222656 -0.394531 -0.140625 -0.4375 C -0.0859375 -0.476562 -0.0234375 -0.5 0.046875 -0.5 L 0.109375 -0.5 C 0.210938 -0.5 0.28125 -0.515625 0.3125 -0.546875 C 0.375 -0.617188 0.421875 -0.691406 0.453125 -0.765625 C 0.453125 -0.785156 0.457031 -0.800781 0.46875 -0.8125 C 0.476562 -0.832031 0.484375 -0.847656 0.484375 -0.859375 C 0.492188 -0.867188 0.5 -0.878906 0.5 -0.890625 C 0.507812 -0.898438 0.515625 -0.910156 0.515625 -0.921875 C 0.515625 -0.929688 0.515625 -0.941406 0.515625 -0.953125 C 0.523438 -0.960938 0.53125 -0.96875 0.53125 -0.96875 L 0.71875 -1.40625 L 1.875 -4.15625 C 1.894531 -4.207031 1.90625 -4.242188 1.90625 -4.265625 L 1.90625 -4.28125 C 1.84375 -4.3125 1.757812 -4.335938 1.65625 -4.359375 C 1.539062 -4.378906 1.460938 -4.410156 1.421875 -4.453125 C 1.347656 -4.503906 1.3125 -4.597656 1.3125 -4.734375 C 1.3125 -4.867188 1.359375 -4.960938 1.453125 -5.015625 C 1.515625 -5.054688 1.597656 -5.078125 1.703125 -5.078125 C 1.796875 -5.078125 1.878906 -5.070312 1.953125 -5.0625 C 2.035156 -5.0625 2.109375 -5.054688 2.171875 -5.046875 C 2.242188 -5.046875 2.3125 -5.035156 2.375 -5.015625 C 2.550781 -4.960938 2.710938 -4.867188 2.859375 -4.734375 C 2.984375 -4.597656 3.097656 -4.398438 3.203125 -4.140625 L 4.5 -0.96875 C 4.570312 -0.789062 4.632812 -0.660156 4.6875 -0.578125 C 4.707031 -0.546875 4.726562 -0.523438 4.75 -0.515625 C 4.78125 -0.503906 4.816406 -0.5 4.859375 -0.5 L 4.90625 -0.5 C 5.007812 -0.5 5.085938 -0.472656 5.140625 -0.421875 C 5.148438 -0.421875 5.160156 -0.414062 5.171875 -0.40625 C 5.179688 -0.394531 5.1875 -0.382812 5.1875 -0.375 C 5.195312 -0.363281 5.203125 -0.351562 5.203125 -0.34375 C 5.210938 -0.332031 5.21875 -0.320312 5.21875 -0.3125 C 5.21875 -0.3125 5.21875 -0.300781 5.21875 -0.28125 C 5.226562 -0.269531 5.234375 -0.257812 5.234375 -0.25 C 5.234375 -0.25 5.234375 -0.242188 5.234375 -0.234375 C 5.234375 -0.222656 5.234375 -0.210938 5.234375 -0.203125 C 5.242188 -0.203125 5.25 -0.195312 5.25 -0.1875 C 5.25 -0.175781 5.25 -0.164062 5.25 -0.15625 L 5.25 -0.140625 C 5.25 -0.0546875 5.222656 0.015625 5.171875 0.078125 C 5.148438 0.109375 5.125 0.132812 5.09375 0.15625 C 5.070312 0.175781 5.046875 0.191406 5.015625 0.203125 C 4.984375 0.210938 4.953125 0.21875 4.921875 0.21875 L 4.90625 0.21875 C 4.582031 0.195312 4.304688 0.1875 4.078125 0.1875 C 3.773438 0.1875 3.457031 0.195312 3.125 0.21875 C 3.09375 0.21875 3.0625 0.210938 3.03125 0.203125 C 3 0.191406 2.96875 0.175781 2.9375 0.15625 C 2.90625 0.132812 2.878906 0.109375 2.859375 0.078125 C 2.835938 0.046875 2.820312 0.015625 2.8125 -0.015625 C 2.800781 -0.0546875 2.796875 -0.0976562 2.796875 -0.140625 L 2.796875 -0.15625 C 2.804688 -0.28125 2.84375 -0.367188 2.90625 -0.421875 C 2.957031 -0.472656 3.03125 -0.5 3.125 -0.5 C 3.269531 -0.5 3.363281 -0.507812 3.40625 -0.53125 C 3.40625 -0.539062 3.40625 -0.554688 3.40625 -0.578125 C 3.40625 -0.609375 3.394531 -0.644531 3.375 -0.6875 C 3.363281 -0.738281 3.351562 -0.785156 3.34375 -0.828125 L 3.125 -1.34375 L 1.484375 -1.34375 C 1.429688 -1.21875 1.394531 -1.117188 1.375 -1.046875 C 1.34375 -0.984375 1.320312 -0.941406 1.3125 -0.921875 C 1.3125 -0.910156 1.304688 -0.894531 1.296875 -0.875 C 1.296875 -0.863281 1.296875 -0.851562 1.296875 -0.84375 C 1.273438 -0.769531 1.253906 -0.703125 1.234375 -0.640625 C 1.222656 -0.578125 1.21875 -0.539062 1.21875 -0.53125 C 1.28125 -0.507812 1.398438 -0.5 1.578125 -0.5 L 1.625 -0.5 C 1.71875 -0.5 1.789062 -0.472656 1.84375 -0.421875 C 1.90625 -0.367188 1.941406 -0.28125 1.953125 -0.15625 L 1.953125 -0.140625 C 1.953125 -0.0546875 1.929688 0.015625 1.890625 0.078125 C 1.859375 0.117188 1.816406 0.148438 1.765625 0.171875 C 1.722656 0.203125 1.675781 0.21875 1.625 0.21875 C 1.457031 0.207031 1.300781 0.195312 1.15625 0.1875 C 1.019531 0.1875 0.898438 0.1875 0.796875 0.1875 C 0.628906 0.1875 0.378906 0.195312 0.046875 0.21875 C -0.0664062 0.21875 -0.15625 0.171875 -0.21875 0.078125 Z M 1.78125 -2.0625 L 2.828125 -2.0625 L 2.328125 -3.359375 Z M 1.78125 -2.0625 "/></g></g></g><g fill="#3a6ab9" fill-opacity="1"><g transform="translate(26.601043, 43.008001)"><g><path d="M 0.140625 0.09375 C 0.0859375 0.03125 0.0625 -0.0390625 0.0625 -0.125 L 0.0625 -0.140625 C 0.0625 -0.140625 0.0625 -0.144531 0.0625 -0.15625 C 0.0703125 -0.289062 0.125 -0.378906 0.21875 -0.421875 C 0.269531 -0.441406 0.34375 -0.453125 0.4375 -0.453125 C 0.519531 -0.453125 0.570312 -0.460938 0.59375 -0.484375 C 0.613281 -0.492188 0.625 -0.503906 0.625 -0.515625 C 0.632812 -0.578125 0.640625 -0.671875 0.640625 -0.796875 L 0.640625 -2.546875 C 0.640625 -2.671875 0.632812 -2.757812 0.625 -2.8125 C 0.625 -2.820312 0.613281 -2.835938 0.59375 -2.859375 C 0.570312 -2.867188 0.519531 -2.875 0.4375 -2.875 C 0.34375 -2.875 0.265625 -2.894531 0.203125 -2.9375 C 0.109375 -2.988281 0.0625 -3.082031 0.0625 -3.21875 C 0.0625 -3.289062 0.0820312 -3.359375 0.125 -3.421875 C 0.15625 -3.453125 0.191406 -3.476562 0.234375 -3.5 C 0.273438 -3.53125 0.316406 -3.546875 0.359375 -3.546875 C 0.660156 -3.585938 0.921875 -3.648438 1.140625 -3.734375 C 1.179688 -3.753906 1.21875 -3.769531 1.25 -3.78125 C 1.289062 -3.789062 1.328125 -3.796875 1.359375 -3.796875 L 1.40625 -3.796875 C 1.5 -3.796875 1.570312 -3.757812 1.625 -3.6875 C 1.6875 -3.625 1.71875 -3.546875 1.71875 -3.453125 L 1.71875 -0.796875 C 1.71875 -0.671875 1.722656 -0.582031 1.734375 -0.53125 C 1.734375 -0.519531 1.742188 -0.503906 1.765625 -0.484375 C 1.765625 -0.484375 1.769531 -0.476562 1.78125 -0.46875 C 1.789062 -0.46875 1.804688 -0.460938 1.828125 -0.453125 C 1.859375 -0.453125 1.890625 -0.453125 1.921875 -0.453125 L 1.96875 -0.453125 C 2.050781 -0.453125 2.117188 -0.4375 2.171875 -0.40625 C 2.242188 -0.351562 2.285156 -0.265625 2.296875 -0.140625 L 2.296875 -0.125 C 2.296875 -0.101562 2.289062 -0.0820312 2.28125 -0.0625 C 2.28125 -0.0507812 2.273438 -0.0351562 2.265625 -0.015625 C 2.265625 -0.00390625 2.257812 0.0078125 2.25 0.03125 C 2.25 0.0507812 2.242188 0.0664062 2.234375 0.078125 C 2.210938 0.109375 2.1875 0.132812 2.15625 0.15625 C 2.132812 0.175781 2.109375 0.191406 2.078125 0.203125 C 2.046875 0.210938 2.015625 0.21875 1.984375 0.21875 L 1.96875 0.21875 C 1.675781 0.195312 1.410156 0.1875 1.171875 0.1875 C 1.054688 0.1875 0.929688 0.1875 0.796875 0.1875 C 0.671875 0.195312 0.535156 0.207031 0.390625 0.21875 L 0.375 0.21875 C 0.28125 0.21875 0.203125 0.175781 0.140625 0.09375 Z M 0.65625 -4.453125 C 0.507812 -4.578125 0.4375 -4.734375 0.4375 -4.921875 C 0.4375 -4.972656 0.441406 -5.019531 0.453125 -5.0625 C 0.472656 -5.101562 0.492188 -5.144531 0.515625 -5.1875 C 0.535156 -5.226562 0.5625 -5.265625 0.59375 -5.296875 C 0.625 -5.328125 0.660156 -5.359375 0.703125 -5.390625 C 0.765625 -5.453125 0.84375 -5.492188 0.9375 -5.515625 C 1.03125 -5.546875 1.117188 -5.5625 1.203125 -5.5625 C 1.265625 -5.5625 1.320312 -5.554688 1.375 -5.546875 C 1.4375 -5.535156 1.488281 -5.515625 1.53125 -5.484375 C 1.582031 -5.453125 1.625 -5.414062 1.65625 -5.375 C 1.78125 -5.25 1.84375 -5.09375 1.84375 -4.90625 C 1.84375 -4.726562 1.769531 -4.570312 1.625 -4.4375 C 1.5 -4.320312 1.335938 -4.265625 1.140625 -4.265625 C 0.941406 -4.265625 0.78125 -4.328125 0.65625 -4.453125 Z M 0.65625 -4.453125 "/></g></g></g><g fill="#3a6ab9" fill-opacity="1"><g transform="translate(28.874096, 43.008001)"><g><path d="M 0.140625 0.09375 C 0.0859375 0.03125 0.0625 -0.0390625 0.0625 -0.125 L 0.0625 -0.140625 C 0.0625 -0.140625 0.0625 -0.144531 0.0625 -0.15625 C 0.0703125 -0.289062 0.125 -0.378906 0.21875 -0.421875 C 0.269531 -0.441406 0.34375 -0.453125 0.4375 -0.453125 C 0.519531 -0.453125 0.570312 -0.460938 0.59375 -0.484375 C 0.613281 -0.492188 0.625 -0.503906 0.625 -0.515625 C 0.632812 -0.578125 0.640625 -0.671875 0.640625 -0.796875 L 0.640625 -2.546875 C 0.640625 -2.671875 0.632812 -2.757812 0.625 -2.8125 C 0.625 -2.820312 0.613281 -2.835938 0.59375 -2.859375 C 0.570312 -2.867188 0.519531 -2.875 0.4375 -2.875 C 0.34375 -2.875 0.265625 -2.894531 0.203125 -2.9375 C 0.109375 -2.988281 0.0625 -3.082031 0.0625 -3.21875 C 0.0625 -3.289062 0.0820312 -3.359375 0.125 -3.421875 C 0.175781 -3.492188 0.253906 -3.535156 0.359375 -3.546875 C 0.503906 -3.566406 0.644531 -3.59375 0.78125 -3.625 C 0.914062 -3.664062 1.03125 -3.703125 1.125 -3.734375 L 1.140625 -3.75 C 1.234375 -3.769531 1.300781 -3.785156 1.34375 -3.796875 L 1.390625 -3.796875 C 1.484375 -3.796875 1.554688 -3.757812 1.609375 -3.6875 C 1.671875 -3.625 1.703125 -3.546875 1.703125 -3.453125 L 1.703125 -3.390625 C 1.796875 -3.460938 1.894531 -3.523438 2 -3.578125 C 2.0625 -3.617188 2.125 -3.648438 2.1875 -3.671875 C 2.257812 -3.703125 2.328125 -3.722656 2.390625 -3.734375 C 2.460938 -3.753906 2.523438 -3.765625 2.578125 -3.765625 C 2.648438 -3.765625 2.722656 -3.753906 2.796875 -3.734375 C 2.867188 -3.710938 2.929688 -3.679688 2.984375 -3.640625 C 3.035156 -3.597656 3.085938 -3.550781 3.140625 -3.5 C 3.203125 -3.425781 3.25 -3.335938 3.28125 -3.234375 C 3.3125 -3.140625 3.328125 -3.046875 3.328125 -2.953125 C 3.328125 -2.753906 3.269531 -2.585938 3.15625 -2.453125 C 3.03125 -2.285156 2.859375 -2.203125 2.640625 -2.203125 C 2.609375 -2.203125 2.578125 -2.203125 2.546875 -2.203125 C 2.515625 -2.210938 2.484375 -2.222656 2.453125 -2.234375 C 2.421875 -2.242188 2.390625 -2.253906 2.359375 -2.265625 C 2.359375 -2.273438 2.347656 -2.28125 2.328125 -2.28125 C 2.316406 -2.289062 2.304688 -2.296875 2.296875 -2.296875 C 2.285156 -2.304688 2.273438 -2.316406 2.265625 -2.328125 C 2.253906 -2.335938 2.242188 -2.347656 2.234375 -2.359375 C 2.222656 -2.378906 2.210938 -2.394531 2.203125 -2.40625 C 2.191406 -2.425781 2.1875 -2.445312 2.1875 -2.46875 L 2.171875 -2.546875 L 2.203125 -2.59375 C 2.203125 -2.613281 2.207031 -2.628906 2.21875 -2.640625 C 2.226562 -2.648438 2.234375 -2.65625 2.234375 -2.65625 C 2.242188 -2.664062 2.253906 -2.675781 2.265625 -2.6875 C 2.273438 -2.707031 2.285156 -2.722656 2.296875 -2.734375 C 2.304688 -2.742188 2.3125 -2.753906 2.3125 -2.765625 C 2.320312 -2.773438 2.328125 -2.785156 2.328125 -2.796875 C 2.328125 -2.816406 2.320312 -2.832031 2.3125 -2.84375 C 2.3125 -2.863281 2.3125 -2.875 2.3125 -2.875 C 2.3125 -2.882812 2.304688 -2.894531 2.296875 -2.90625 C 2.273438 -2.914062 2.257812 -2.921875 2.25 -2.921875 C 2.195312 -2.921875 2.117188 -2.882812 2.015625 -2.8125 C 1.992188 -2.800781 1.972656 -2.785156 1.953125 -2.765625 C 1.941406 -2.753906 1.925781 -2.738281 1.90625 -2.71875 C 1.882812 -2.707031 1.863281 -2.691406 1.84375 -2.671875 C 1.820312 -2.660156 1.800781 -2.644531 1.78125 -2.625 C 1.757812 -2.613281 1.738281 -2.597656 1.71875 -2.578125 L 1.71875 -0.796875 C 1.71875 -0.671875 1.722656 -0.582031 1.734375 -0.53125 C 1.734375 -0.519531 1.742188 -0.503906 1.765625 -0.484375 C 1.765625 -0.484375 1.769531 -0.476562 1.78125 -0.46875 C 1.789062 -0.46875 1.804688 -0.460938 1.828125 -0.453125 C 1.859375 -0.453125 1.890625 -0.453125 1.921875 -0.453125 L 1.96875 -0.453125 C 2.050781 -0.453125 2.117188 -0.4375 2.171875 -0.40625 C 2.242188 -0.351562 2.285156 -0.265625 2.296875 -0.140625 L 2.296875 -0.125 C 2.296875 -0.101562 2.289062 -0.0820312 2.28125 -0.0625 C 2.28125 -0.0507812 2.273438 -0.0351562 2.265625 -0.015625 C 2.265625 -0.00390625 2.257812 0.0078125 2.25 0.03125 C 2.25 0.0507812 2.242188 0.0664062 2.234375 0.078125 C 2.210938 0.109375 2.1875 0.132812 2.15625 0.15625 C 2.132812 0.175781 2.109375 0.191406 2.078125 0.203125 C 2.046875 0.210938 2.015625 0.21875 1.984375 0.21875 L 1.96875 0.21875 C 1.675781 0.195312 1.410156 0.1875 1.171875 0.1875 C 1.054688 0.1875 0.929688 0.1875 0.796875 0.1875 C 0.671875 0.195312 0.535156 0.207031 0.390625 0.21875 L 0.375 0.21875 C 0.28125 0.21875 0.203125 0.175781 0.140625 0.09375 Z M 0.140625 0.09375 "/></g></g></g><g fill="#3a6ab9" fill-opacity="1"><g transform="translate(32.137772, 43.008001)"><g/></g></g><g fill="#3a6ab9" fill-opacity="1"><g transform="translate(33.850241, 43.008001)"><g><path d="M 0.203125 0.078125 C 0.179688 0.046875 0.164062 0.015625 0.15625 -0.015625 C 0.144531 -0.0546875 0.140625 -0.0976562 0.140625 -0.140625 L 0.140625 -0.15625 C 0.140625 -0.15625 0.140625 -0.160156 0.140625 -0.171875 C 0.148438 -0.304688 0.195312 -0.394531 0.28125 -0.4375 C 0.332031 -0.476562 0.410156 -0.5 0.515625 -0.5 C 0.628906 -0.5 0.703125 -0.507812 0.734375 -0.53125 C 0.773438 -0.5625 0.796875 -0.59375 0.796875 -0.625 C 0.816406 -0.695312 0.828125 -0.785156 0.828125 -0.890625 L 0.828125 -3.9375 C 0.828125 -4.050781 0.816406 -4.144531 0.796875 -4.21875 C 0.796875 -4.226562 0.789062 -4.238281 0.78125 -4.25 C 0.78125 -4.257812 0.773438 -4.265625 0.765625 -4.265625 C 0.765625 -4.273438 0.753906 -4.285156 0.734375 -4.296875 C 0.703125 -4.328125 0.628906 -4.34375 0.515625 -4.34375 L 0.46875 -4.34375 C 0.445312 -4.34375 0.429688 -4.34375 0.421875 -4.34375 C 0.410156 -4.34375 0.390625 -4.34375 0.359375 -4.34375 C 0.335938 -4.351562 0.316406 -4.363281 0.296875 -4.375 C 0.273438 -4.382812 0.257812 -4.398438 0.25 -4.421875 C 0.238281 -4.421875 0.226562 -4.425781 0.21875 -4.4375 C 0.207031 -4.445312 0.195312 -4.457031 0.1875 -4.46875 C 0.1875 -4.476562 0.179688 -4.488281 0.171875 -4.5 C 0.171875 -4.507812 0.164062 -4.515625 0.15625 -4.515625 C 0.15625 -4.523438 0.15625 -4.535156 0.15625 -4.546875 C 0.15625 -4.566406 0.148438 -4.578125 0.140625 -4.578125 C 0.140625 -4.585938 0.140625 -4.597656 0.140625 -4.609375 C 0.140625 -4.617188 0.140625 -4.625 0.140625 -4.625 C 0.140625 -4.632812 0.140625 -4.644531 0.140625 -4.65625 C 0.140625 -4.664062 0.140625 -4.675781 0.140625 -4.6875 C 0.140625 -4.78125 0.160156 -4.859375 0.203125 -4.921875 C 0.234375 -4.960938 0.269531 -4.992188 0.3125 -5.015625 C 0.363281 -5.046875 0.410156 -5.0625 0.453125 -5.0625 L 0.46875 -5.0625 C 0.550781 -5.050781 0.628906 -5.046875 0.703125 -5.046875 C 0.785156 -5.046875 0.863281 -5.039062 0.9375 -5.03125 C 1.019531 -5.03125 1.097656 -5.03125 1.171875 -5.03125 C 1.242188 -5.03125 1.3125 -5.03125 1.375 -5.03125 L 3.59375 -5.03125 C 3.625 -5.03125 3.65625 -5.023438 3.6875 -5.015625 C 3.71875 -5.015625 3.75 -5.003906 3.78125 -4.984375 C 3.820312 -4.972656 3.851562 -4.953125 3.875 -4.921875 C 3.945312 -4.859375 3.984375 -4.769531 3.984375 -4.65625 L 4 -3.578125 C 4 -3.460938 3.945312 -3.375 3.84375 -3.3125 C 3.769531 -3.257812 3.691406 -3.234375 3.609375 -3.234375 C 3.515625 -3.234375 3.429688 -3.253906 3.359375 -3.296875 C 3.242188 -3.347656 3.179688 -3.429688 3.171875 -3.546875 C 3.140625 -3.773438 3.097656 -3.953125 3.046875 -4.078125 C 3.015625 -4.171875 2.972656 -4.234375 2.921875 -4.265625 C 2.847656 -4.304688 2.742188 -4.332031 2.609375 -4.34375 L 1.96875 -4.34375 L 1.96875 -2.734375 L 3.171875 -2.734375 C 3.222656 -2.722656 3.269531 -2.703125 3.3125 -2.671875 C 3.351562 -2.648438 3.382812 -2.617188 3.40625 -2.578125 C 3.445312 -2.515625 3.46875 -2.441406 3.46875 -2.359375 C 3.46875 -2.335938 3.460938 -2.3125 3.453125 -2.28125 C 3.453125 -2.257812 3.445312 -2.234375 3.4375 -2.203125 C 3.425781 -2.179688 3.414062 -2.160156 3.40625 -2.140625 C 3.394531 -2.128906 3.378906 -2.113281 3.359375 -2.09375 C 3.335938 -2.070312 3.316406 -2.054688 3.296875 -2.046875 C 3.273438 -2.035156 3.25 -2.023438 3.21875 -2.015625 C 3.195312 -2.015625 3.175781 -2.015625 3.15625 -2.015625 L 1.96875 -2.015625 L 1.96875 -0.890625 C 1.976562 -0.835938 1.984375 -0.785156 1.984375 -0.734375 C 1.984375 -0.691406 1.988281 -0.65625 2 -0.625 C 2.007812 -0.613281 2.015625 -0.597656 2.015625 -0.578125 C 2.023438 -0.566406 2.039062 -0.550781 2.0625 -0.53125 C 2.101562 -0.507812 2.175781 -0.5 2.28125 -0.5 L 2.328125 -0.5 C 2.367188 -0.5 2.40625 -0.492188 2.4375 -0.484375 C 2.476562 -0.472656 2.515625 -0.453125 2.546875 -0.421875 C 2.609375 -0.378906 2.644531 -0.289062 2.65625 -0.15625 L 2.65625 -0.140625 C 2.65625 -0.0546875 2.632812 0.015625 2.59375 0.078125 C 2.570312 0.109375 2.546875 0.132812 2.515625 0.15625 C 2.492188 0.175781 2.460938 0.191406 2.421875 0.203125 C 2.390625 0.210938 2.359375 0.21875 2.328125 0.21875 C 1.992188 0.195312 1.675781 0.1875 1.375 0.1875 C 1.101562 0.1875 0.800781 0.195312 0.46875 0.21875 L 0.453125 0.21875 C 0.347656 0.21875 0.265625 0.171875 0.203125 0.078125 Z M 0.203125 0.078125 "/></g></g></g><g fill="#3a6ab9" fill-opacity="1"><g transform="translate(37.881841, 43.008001)"><g><path d="M 0.0625 0.09375 C 0.0078125 0.03125 -0.015625 -0.0390625 -0.015625 -0.125 L -0.015625 -0.140625 C -0.00390625 -0.273438 0.0390625 -0.367188 0.125 -0.421875 C 0.175781 -0.441406 0.253906 -0.453125 0.359375 -0.453125 C 0.441406 -0.453125 0.492188 -0.460938 0.515625 -0.484375 C 0.535156 -0.503906 0.546875 -0.519531 0.546875 -0.53125 C 0.554688 -0.582031 0.5625 -0.671875 0.5625 -0.796875 L 0.5625 -4.53125 C 0.5625 -4.59375 0.554688 -4.644531 0.546875 -4.6875 C 0.546875 -4.738281 0.546875 -4.773438 0.546875 -4.796875 L 0.515625 -4.84375 C 0.492188 -4.851562 0.441406 -4.859375 0.359375 -4.859375 C 0.265625 -4.859375 0.1875 -4.878906 0.125 -4.921875 C 0.03125 -4.972656 -0.015625 -5.066406 -0.015625 -5.203125 C -0.015625 -5.273438 0.00390625 -5.34375 0.046875 -5.40625 C 0.0976562 -5.476562 0.175781 -5.523438 0.28125 -5.546875 C 0.582031 -5.578125 0.84375 -5.632812 1.0625 -5.71875 C 1.101562 -5.738281 1.140625 -5.753906 1.171875 -5.765625 C 1.210938 -5.773438 1.25 -5.78125 1.28125 -5.78125 L 1.328125 -5.78125 C 1.421875 -5.78125 1.492188 -5.742188 1.546875 -5.671875 C 1.609375 -5.609375 1.640625 -5.535156 1.640625 -5.453125 L 1.640625 -0.796875 C 1.640625 -0.671875 1.644531 -0.582031 1.65625 -0.53125 L 1.6875 -0.484375 C 1.6875 -0.484375 1.691406 -0.476562 1.703125 -0.46875 C 1.710938 -0.46875 1.726562 -0.460938 1.75 -0.453125 C 1.78125 -0.453125 1.8125 -0.453125 1.84375 -0.453125 L 1.890625 -0.453125 C 1.972656 -0.453125 2.046875 -0.4375 2.109375 -0.40625 C 2.171875 -0.351562 2.207031 -0.265625 2.21875 -0.140625 L 2.21875 -0.125 C 2.21875 -0.113281 2.21875 -0.101562 2.21875 -0.09375 C 2.21875 -0.0820312 2.210938 -0.0703125 2.203125 -0.0625 C 2.203125 -0.0507812 2.203125 -0.0390625 2.203125 -0.03125 C 2.203125 -0.0195312 2.195312 -0.0078125 2.1875 0 C 2.1875 0 2.179688 0.00390625 2.171875 0.015625 C 2.171875 0.0234375 2.164062 0.0351562 2.15625 0.046875 C 2.15625 0.0546875 2.15625 0.0664062 2.15625 0.078125 C 2.132812 0.109375 2.109375 0.132812 2.078125 0.15625 C 2.054688 0.175781 2.03125 0.191406 2 0.203125 C 1.96875 0.210938 1.9375 0.21875 1.90625 0.21875 L 1.890625 0.21875 C 1.597656 0.195312 1.332031 0.1875 1.09375 0.1875 C 0.976562 0.1875 0.851562 0.1875 0.71875 0.1875 C 0.59375 0.195312 0.457031 0.207031 0.3125 0.21875 L 0.296875 0.21875 C 0.191406 0.21875 0.113281 0.175781 0.0625 0.09375 Z M 0.0625 0.09375 "/></g></g></g><g fill="#3a6ab9" fill-opacity="1"><g transform="translate(40.078103, 43.008001)"><g><path d="M 1.078125 0 C 0.992188 -0.0390625 0.921875 -0.0859375 0.859375 -0.140625 C 0.796875 -0.191406 0.734375 -0.25 0.671875 -0.3125 C 0.609375 -0.375 0.550781 -0.4375 0.5 -0.5 C 0.457031 -0.570312 0.414062 -0.644531 0.375 -0.71875 C 0.207031 -1.03125 0.125 -1.351562 0.125 -1.6875 C 0.125 -2.101562 0.222656 -2.472656 0.421875 -2.796875 C 0.617188 -3.109375 0.867188 -3.347656 1.171875 -3.515625 C 1.484375 -3.679688 1.796875 -3.765625 2.109375 -3.765625 C 2.296875 -3.765625 2.472656 -3.738281 2.640625 -3.6875 C 2.816406 -3.644531 2.976562 -3.578125 3.125 -3.484375 C 3.425781 -3.296875 3.660156 -3.050781 3.828125 -2.75 C 3.992188 -2.445312 4.078125 -2.125 4.078125 -1.78125 C 4.078125 -1.363281 3.976562 -1 3.78125 -0.6875 C 3.582031 -0.375 3.328125 -0.132812 3.015625 0.03125 C 2.710938 0.195312 2.410156 0.28125 2.109375 0.28125 C 1.722656 0.28125 1.378906 0.1875 1.078125 0 Z M 2.703125 -0.734375 C 2.722656 -0.785156 2.742188 -0.835938 2.765625 -0.890625 C 2.796875 -0.953125 2.816406 -1.015625 2.828125 -1.078125 C 2.847656 -1.148438 2.863281 -1.222656 2.875 -1.296875 C 2.894531 -1.367188 2.90625 -1.445312 2.90625 -1.53125 C 2.914062 -1.613281 2.921875 -1.695312 2.921875 -1.78125 C 2.921875 -2.1875 2.84375 -2.515625 2.6875 -2.765625 C 2.5625 -2.984375 2.367188 -3.09375 2.109375 -3.09375 C 1.953125 -3.09375 1.828125 -3.066406 1.734375 -3.015625 C 1.640625 -2.960938 1.5625 -2.875 1.5 -2.75 C 1.457031 -2.664062 1.421875 -2.570312 1.390625 -2.46875 C 1.359375 -2.363281 1.332031 -2.242188 1.3125 -2.109375 C 1.289062 -1.984375 1.28125 -1.847656 1.28125 -1.703125 C 1.28125 -1.296875 1.359375 -0.96875 1.515625 -0.71875 C 1.578125 -0.601562 1.65625 -0.519531 1.75 -0.46875 C 1.84375 -0.414062 1.960938 -0.390625 2.109375 -0.390625 C 2.203125 -0.390625 2.285156 -0.398438 2.359375 -0.421875 C 2.429688 -0.441406 2.492188 -0.476562 2.546875 -0.53125 C 2.597656 -0.582031 2.648438 -0.648438 2.703125 -0.734375 Z M 2.703125 -0.734375 "/></g></g></g><g fill="#3a6ab9" fill-opacity="1"><g transform="translate(44.286326, 43.008001)"><g><path d="M 0.640625 -2.578125 C 0.617188 -2.640625 0.59375 -2.691406 0.5625 -2.734375 C 0.53125 -2.785156 0.503906 -2.828125 0.484375 -2.859375 C 0.472656 -2.890625 0.457031 -2.910156 0.4375 -2.921875 C 0.425781 -2.941406 0.398438 -2.957031 0.359375 -2.96875 C 0.316406 -2.988281 0.269531 -3 0.21875 -3 L 0.1875 -3.015625 L 0.171875 -3.015625 C 0.160156 -3.015625 0.144531 -3.015625 0.125 -3.015625 C 0.0195312 -3.035156 -0.0507812 -3.085938 -0.09375 -3.171875 C -0.113281 -3.210938 -0.125 -3.273438 -0.125 -3.359375 C -0.125 -3.410156 -0.113281 -3.460938 -0.09375 -3.515625 C -0.0703125 -3.578125 -0.03125 -3.625 0.03125 -3.65625 C 0.0820312 -3.675781 0.144531 -3.6875 0.21875 -3.6875 C 0.269531 -3.695312 0.304688 -3.703125 0.328125 -3.703125 C 0.679688 -3.710938 0.960938 -3.65625 1.171875 -3.53125 C 1.378906 -3.414062 1.550781 -3.207031 1.6875 -2.90625 L 1.6875 -2.890625 L 1.703125 -2.890625 L 2.21875 -1.40625 C 2.226562 -1.445312 2.238281 -1.484375 2.25 -1.515625 C 2.257812 -1.546875 2.269531 -1.582031 2.28125 -1.625 C 2.320312 -1.78125 2.367188 -1.957031 2.421875 -2.15625 C 2.484375 -2.351562 2.539062 -2.5625 2.59375 -2.78125 C 2.65625 -3.007812 2.722656 -3.253906 2.796875 -3.515625 L 2.84375 -3.671875 L 3.484375 -3.671875 L 3.53125 -3.546875 L 4.390625 -1.390625 C 4.410156 -1.453125 4.425781 -1.515625 4.4375 -1.578125 C 4.457031 -1.648438 4.476562 -1.71875 4.5 -1.78125 C 4.539062 -1.957031 4.570312 -2.09375 4.59375 -2.1875 C 4.613281 -2.289062 4.628906 -2.359375 4.640625 -2.390625 L 4.78125 -2.921875 C 4.78125 -2.941406 4.78125 -2.957031 4.78125 -2.96875 C 4.789062 -2.976562 4.796875 -2.988281 4.796875 -3 C 4.773438 -3.007812 4.753906 -3.015625 4.734375 -3.015625 C 4.710938 -3.015625 4.691406 -3.015625 4.671875 -3.015625 L 4.625 -3.015625 C 4.601562 -3.015625 4.582031 -3.015625 4.5625 -3.015625 C 4.539062 -3.015625 4.515625 -3.019531 4.484375 -3.03125 C 4.460938 -3.039062 4.4375 -3.054688 4.40625 -3.078125 C 4.351562 -3.128906 4.320312 -3.210938 4.3125 -3.328125 L 4.3125 -3.34375 C 4.3125 -3.40625 4.328125 -3.46875 4.359375 -3.53125 C 4.410156 -3.632812 4.492188 -3.6875 4.609375 -3.6875 L 4.625 -3.6875 C 4.769531 -3.675781 4.898438 -3.671875 5.015625 -3.671875 C 5.140625 -3.671875 5.253906 -3.671875 5.359375 -3.671875 C 5.390625 -3.671875 5.421875 -3.671875 5.453125 -3.671875 C 5.484375 -3.671875 5.515625 -3.671875 5.546875 -3.671875 C 5.585938 -3.671875 5.628906 -3.671875 5.671875 -3.671875 C 5.722656 -3.671875 5.773438 -3.671875 5.828125 -3.671875 C 5.878906 -3.679688 5.9375 -3.6875 6 -3.6875 C 6.113281 -3.6875 6.195312 -3.640625 6.25 -3.546875 C 6.289062 -3.484375 6.3125 -3.414062 6.3125 -3.34375 L 6.3125 -3.328125 C 6.300781 -3.210938 6.265625 -3.128906 6.203125 -3.078125 C 6.140625 -3.035156 6.066406 -3.015625 5.984375 -3.015625 C 5.941406 -3.015625 5.898438 -3.007812 5.859375 -3 C 5.816406 -3 5.78125 -2.992188 5.75 -2.984375 C 5.71875 -2.984375 5.691406 -2.976562 5.671875 -2.96875 C 5.648438 -2.96875 5.632812 -2.960938 5.625 -2.953125 C 5.5625 -2.910156 5.515625 -2.828125 5.484375 -2.703125 L 5.171875 -1.6875 L 4.625 0.125 L 4.59375 0.265625 L 3.859375 0.265625 L 3.8125 0.140625 L 3.03125 -1.84375 L 3.015625 -1.78125 L 2.4375 0.125 L 2.40625 0.265625 L 1.671875 0.265625 L 1.625 0.140625 Z M 0.640625 -2.578125 "/></g></g></g></svg>